<?xml version="1.0" encoding="utf-8"?>
<!-- Generator: Adobe Illustrator 25.2.3, SVG Export Plug-In . SVG Version: 6.00 Build 0)  -->
<svg version="1.1" id="Layer_1" xmlns="http://www.w3.org/2000/svg" xmlns:xlink="http://www.w3.org/1999/xlink" x="0px" y="0px"
	 viewBox="0 0 17 16" style="enable-background:new 0 0 17 16;" xml:space="preserve">
<style type="text/css">
	.st0{fill-rule:evenodd;clip-rule:evenodd;fill:#575757;}
</style>
<path class="st0" d="M7.4,0.3C4,0.3,1.3,3,1.3,6.4s2.7,6,6.1,6c1.3,0,2.4-0.4,3.4-1l4,3.9c0.4,0.4,1.1,0.4,1.6,0
	c0.4-0.4,0.4-1.1,0-1.5l-3.9-3.9c0.7-1,1.1-2.2,1.1-3.5C13.5,3,10.8,0.3,7.4,0.3z M3.5,6.4c0-2.1,1.7-3.9,3.9-3.9
	c2.2,0,3.9,1.7,3.9,3.9s-1.7,3.9-3.9,3.9C5.2,10.2,3.5,8.5,3.5,6.4z"/>
</svg>
