<svg width="18" height="18" viewBox="0 0 18 18" fill="none" xmlns="http://www.w3.org/2000/svg">
<path d="M13.95 4.96497C16.185 4.96497 18 6.74997 18 8.99997C18 11.22 16.185 13.0275 13.95 13.0275C12.8625 13.0275 11.85 12.6075 11.085 11.85L9 10.005L6.8775 11.8875C6.15 12.615 5.13 13.035 4.05 13.035C1.815 13.035 0 11.22 0 8.99997C0 6.77997 1.815 4.96497 4.05 4.96497C5.13 4.96497 6.15 5.38497 6.915 6.14997L9 7.99497L11.1225 6.11247C11.85 5.38497 12.87 4.96497 13.95 4.96497ZM5.85 10.7925L7.875 8.99997L5.88 7.23747C5.37 6.72747 4.7325 6.46497 4.05 6.46497C2.6475 6.46497 1.5 7.59747 1.5 8.99997C1.5 10.4025 2.6475 11.535 4.05 11.535C4.7325 11.535 5.37 11.2725 5.85 10.7925ZM12.15 7.20747L10.125 8.99997L12.12 10.7625C12.63 11.2725 13.275 11.535 13.95 11.535C15.3525 11.535 16.5 10.4025 16.5 8.99997C16.5 7.59747 15.3525 6.46497 13.95 6.46497C13.2675 6.46497 12.63 6.72747 12.15 7.20747Z" fill="#575757"/>
</svg>
