<svg width="31" height="31" viewBox="0 0 31 31" fill="none" xmlns="http://www.w3.org/2000/svg">
<path opacity="0.3" d="M7.56531 2.58398H17.9029C18.2576 2.58398 18.6008 2.70967 18.8716 2.93872L25.3019 8.37765C25.6388 8.66266 25.8332 9.08159 25.8332 9.52291V25.9416C25.8332 28.2544 25.8068 28.4173 23.4344 28.4173H7.56531C5.19292 28.4173 5.1665 28.2544 5.1665 25.9416V5.05968C5.1665 2.7469 5.19292 2.58398 7.56531 2.58398Z" fill="#B5B5C3"/>
<path fill-rule="evenodd" clip-rule="evenodd" d="M14.2084 18.0827L11.625 18.0827C10.9117 18.0827 10.3334 17.5044 10.3334 16.791C10.3334 16.0776 10.9117 15.4993 11.625 15.4993L14.2084 15.4993L14.2084 12.916C14.2084 12.2026 14.7867 11.6244 15.5 11.6244C16.2134 11.6244 16.7917 12.2026 16.7917 12.916L16.7917 15.4993H19.375C20.0884 15.4993 20.6667 16.0776 20.6667 16.791C20.6667 17.5044 20.0884 18.0827 19.375 18.0827H16.7917L16.7917 20.666C16.7917 21.3794 16.2134 21.9577 15.5 21.9577C14.7867 21.9577 14.2084 21.3794 14.2084 20.666L14.2084 18.0827Z" fill="#B5B5C3"/>
</svg>
