<svg width="31" height="31" viewBox="0 0 31 31" fill="none" xmlns="http://www.w3.org/2000/svg">
<path opacity="0.3" d="M28.546 14.8541V16.275C28.546 17.05 28.0293 17.5666 27.3835 17.6958L25.7043 17.9541C25.446 18.9875 25.0585 20.0208 24.4127 20.925L25.446 22.3457C25.8335 22.8624 25.8335 23.7665 25.3168 24.2832L24.2835 25.3166C23.7668 25.8333 22.9918 25.8333 22.346 25.4458L20.9252 24.4125C20.021 24.9291 18.9877 25.4458 17.9543 25.7041L17.696 27.3833C17.5668 28.0291 16.921 28.5458 16.2752 28.5458H14.8543C14.0793 28.5458 13.5627 28.0291 13.4335 27.3833L13.1752 25.7041C12.1418 25.4458 11.1085 25.0583 10.2043 24.4125L8.7835 25.4458C8.26683 25.8333 7.36266 25.8333 6.846 25.3166L5.81266 24.2832C5.296 23.7665 5.296 22.9915 5.6835 22.3457L6.71683 20.925C6.20016 20.0208 5.6835 18.9875 5.42516 17.9541L3.746 17.6958C3.10016 17.5666 2.5835 16.9208 2.5835 16.275V14.8541C2.5835 14.0791 3.10016 13.5625 3.746 13.4333L5.42516 13.175C5.6835 12.1416 6.071 11.1083 6.71683 10.2042L5.6835 8.78322C5.296 8.26656 5.296 7.36239 5.81266 6.84572L6.846 5.81248C7.36266 5.29581 8.13766 5.29584 8.7835 5.68334L10.2043 6.71658C11.1085 6.19992 12.1418 5.68325 13.1752 5.42492L13.4335 3.74584C13.5627 3.10001 14.2085 2.58331 14.8543 2.58331H16.2752C17.0502 2.58331 17.5668 3.10001 17.696 3.74584L17.9543 5.42492C18.9877 5.68325 20.021 6.07075 20.9252 6.71658L22.346 5.68334C22.8627 5.29584 23.7668 5.29581 24.2835 5.81248L25.3168 6.84572C25.8335 7.36239 25.8335 8.13739 25.446 8.78322L24.4127 10.2042C24.9293 11.1083 25.446 12.1416 25.7043 13.175L27.3835 13.4333C28.0293 13.5625 28.546 14.2083 28.546 14.8541ZM15.6293 11.1083C13.1752 11.1083 11.1085 13.175 11.1085 15.6291C11.1085 18.0833 13.1752 20.15 15.6293 20.15C18.0835 20.15 20.1502 18.0833 20.1502 15.6291C20.1502 13.175 18.0835 11.1083 15.6293 11.1083Z" fill="#B5B5C3"/>
<path d="M22.0876 15.6291C22.0876 19.2458 19.2459 22.0875 15.6292 22.0875C12.0126 22.0875 9.1709 19.2458 9.1709 15.6291C9.1709 12.0124 12.0126 9.17078 15.6292 9.17078C19.2459 9.17078 22.0876 12.0124 22.0876 15.6291ZM15.6292 13.0458C14.2084 13.0458 13.0459 14.2083 13.0459 15.6291C13.0459 17.05 14.2084 18.2125 15.6292 18.2125C17.0501 18.2125 18.2126 17.05 18.2126 15.6291C18.2126 14.2083 17.0501 13.0458 15.6292 13.0458Z" fill="#B5B5C3"/>
</svg>
