<svg width="31" height="31" viewBox="0 0 31 31" fill="none" xmlns="http://www.w3.org/2000/svg">
<rect x="5.1665" y="5.16602" width="9.04167" height="9.04167" rx="1.5" fill="#9F9FB9"/>
<path opacity="0.3" fill-rule="evenodd" clip-rule="evenodd" d="M16.7915 6.66602C16.7915 5.83759 17.4631 5.16602 18.2915 5.16602H24.3332C25.1616 5.16602 25.8332 5.83759 25.8332 6.66602V12.7077C25.8332 13.5361 25.1616 14.2077 24.3332 14.2077H18.2915C17.4631 14.2077 16.7915 13.5361 16.7915 12.7077V6.66602ZM5.1665 18.291C5.1665 17.4626 5.83808 16.791 6.6665 16.791H12.7082C13.5366 16.791 14.2082 17.4626 14.2082 18.291V24.3327C14.2082 25.1611 13.5366 25.8327 12.7082 25.8327H6.66651C5.83808 25.8327 5.1665 25.1611 5.1665 24.3327V18.291ZM18.2915 16.791C17.4631 16.791 16.7915 17.4626 16.7915 18.291V24.3327C16.7915 25.1611 17.4631 25.8327 18.2915 25.8327H24.3332C25.1616 25.8327 25.8332 25.1611 25.8332 24.3327V18.291C25.8332 17.4626 25.1616 16.791 24.3332 16.791H18.2915Z" fill="#B5B5C3"/>
</svg>
