<svg width="31" height="31" viewBox="0 0 31 31" fill="none" xmlns="http://www.w3.org/2000/svg">
<path opacity="0.15" d="M27.125 15.5C27.125 21.9203 21.9203 27.125 15.5 27.125C9.07969 27.125 3.875 21.9203 3.875 15.5C3.875 9.07969 9.07969 3.875 15.5 3.875C21.9203 3.875 27.125 9.07969 27.125 15.5Z" fill="#B5B5C3"/>
<path d="M16.25 7.75C16.25 7.33579 15.9142 7 15.5 7C15.0858 7 14.75 7.33579 14.75 7.75H16.25ZM14.75 10.3333C14.75 10.7475 15.0858 11.0833 15.5 11.0833C15.9142 11.0833 16.25 10.7475 16.25 10.3333H14.75ZM16.25 20.6667C16.25 20.2525 15.9142 19.9167 15.5 19.9167C15.0858 19.9167 14.75 20.2525 14.75 20.6667H16.25ZM14.75 23.25C14.75 23.6642 15.0858 24 15.5 24C15.9142 24 16.25 23.6642 16.25 23.25H14.75ZM19.375 11.0833C19.7892 11.0833 20.125 10.7475 20.125 10.3333C20.125 9.91912 19.7892 9.58333 19.375 9.58333V11.0833ZM14.2083 10.3333V9.58333V10.3333ZM16.7917 20.6667V19.9167V20.6667ZM11.625 19.9167C11.2108 19.9167 10.875 20.2525 10.875 20.6667C10.875 21.0809 11.2108 21.4167 11.625 21.4167V19.9167ZM16.7917 15.5V14.75V15.5ZM14.2083 15.5V14.75V15.5ZM13.2197 10.53L12.9327 9.83707L13.2197 10.53ZM11.8216 11.9281L11.1287 11.6411L11.8216 11.9281ZM11.8216 13.9053L11.1287 14.1923L11.8216 13.9053ZM12.3816 14.7434L12.912 14.213L12.3816 14.7434ZM13.2197 15.3034L12.9327 15.9963L13.2197 15.3034ZM17.7803 20.47L18.0673 21.1629L17.7803 20.47ZM18.6184 19.91L18.088 19.3797L18.6184 19.91ZM19.1784 19.0719L19.8713 19.3589L19.1784 19.0719ZM19.1784 17.0947L19.8713 16.8077L19.1784 17.0947ZM18.6184 16.2566L18.088 16.787L18.6184 16.2566ZM17.7803 15.6966L18.0673 15.0037L17.7803 15.6966ZM26.375 15.5C26.375 21.5061 21.5061 26.375 15.5 26.375V27.875C22.3345 27.875 27.875 22.3345 27.875 15.5H26.375ZM15.5 26.375C9.4939 26.375 4.625 21.5061 4.625 15.5H3.125C3.125 22.3345 8.66548 27.875 15.5 27.875V26.375ZM4.625 15.5C4.625 9.4939 9.4939 4.625 15.5 4.625V3.125C8.66548 3.125 3.125 8.66548 3.125 15.5H4.625ZM15.5 4.625C21.5061 4.625 26.375 9.4939 26.375 15.5H27.875C27.875 8.66548 22.3345 3.125 15.5 3.125V4.625ZM14.75 7.75V10.3333H16.25V7.75H14.75ZM14.75 20.6667V23.25H16.25V20.6667H14.75ZM19.375 9.58333H14.2083V11.0833H19.375V9.58333ZM16.7917 19.9167H11.625V21.4167H16.7917V19.9167ZM16.7917 14.75H14.2083V16.25H16.7917V14.75ZM14.2083 9.58333C13.7706 9.58333 13.3371 9.66955 12.9327 9.83707L13.5067 11.2229C13.7292 11.1308 13.9676 11.0833 14.2083 11.0833V9.58333ZM12.9327 9.83707C12.5283 10.0046 12.1608 10.2501 11.8513 10.5596L12.912 11.6203C13.0822 11.4501 13.2843 11.315 13.5067 11.2229L12.9327 9.83707ZM11.8513 10.5596C11.5418 10.8692 11.2963 11.2366 11.1287 11.6411L12.5146 12.2151C12.6067 11.9927 12.7417 11.7905 12.912 11.6203L11.8513 10.5596ZM11.1287 11.6411C10.9612 12.0455 10.875 12.4789 10.875 12.9167H12.375C12.375 12.6759 12.4224 12.4375 12.5146 12.2151L11.1287 11.6411ZM10.875 12.9167C10.875 13.3544 10.9612 13.7879 11.1287 14.1923L12.5146 13.6183C12.4224 13.3958 12.375 13.1574 12.375 12.9167H10.875ZM11.1287 14.1923C11.2963 14.5967 11.5418 14.9642 11.8513 15.2737L12.912 14.213C12.7417 14.0428 12.6067 13.8407 12.5146 13.6183L11.1287 14.1923ZM11.8513 15.2737C12.1608 15.5832 12.5283 15.8287 12.9327 15.9963L13.5067 14.6104C13.2843 14.5183 13.0822 14.3833 12.912 14.213L11.8513 15.2737ZM12.9327 15.9963C13.3371 16.1638 13.7706 16.25 14.2083 16.25V14.75C13.9676 14.75 13.7292 14.7026 13.5067 14.6104L12.9327 15.9963ZM16.7917 21.4167C17.2294 21.4167 17.6629 21.3304 18.0673 21.1629L17.4933 19.7771C17.2708 19.8692 17.0324 19.9167 16.7917 19.9167V21.4167ZM18.0673 21.1629C18.4717 20.9954 18.8392 20.7499 19.1487 20.4404L18.088 19.3797C17.9178 19.5499 17.7157 19.685 17.4933 19.7771L18.0673 21.1629ZM19.1487 20.4404C19.4582 20.1308 19.7037 19.7634 19.8713 19.3589L18.4854 18.7849C18.3933 19.0073 18.2583 19.2095 18.088 19.3797L19.1487 20.4404ZM19.8713 19.3589C20.0388 18.9545 20.125 18.5211 20.125 18.0833H18.625C18.625 18.3241 18.5776 18.5625 18.4854 18.7849L19.8713 19.3589ZM20.125 18.0833C20.125 17.6456 20.0388 17.2121 19.8713 16.8077L18.4854 17.3817C18.5776 17.6042 18.625 17.8426 18.625 18.0833H20.125ZM19.8713 16.8077C19.7037 16.4033 19.4582 16.0358 19.1487 15.7263L18.088 16.787C18.2583 16.9572 18.3933 17.1593 18.4854 17.3817L19.8713 16.8077ZM19.1487 15.7263C18.8392 15.4168 18.4717 15.1712 18.0673 15.0037L17.4933 16.3896C17.7157 16.4817 17.9178 16.6167 18.088 16.787L19.1487 15.7263ZM18.0673 15.0037C17.6629 14.8362 17.2294 14.75 16.7917 14.75V16.25C17.0324 16.25 17.2708 16.2974 17.4933 16.3896L18.0673 15.0037Z" fill="#B5B5C3"/>
</svg>
