<svg width="12" height="8" viewBox="0 0 12 8" fill="none" xmlns="http://www.w3.org/2000/svg">
<path d="M11.5685 7.36857C11.4044 7.5326 11.1819 7.62476 10.9499 7.62476C10.7179 7.62476 10.4954 7.5326 10.3313 7.36857L6.00002 3.03732L1.66877 7.36857C1.50374 7.52795 1.28271 7.61615 1.05329 7.61416C0.823871 7.61216 0.604409 7.52014 0.442178 7.35791C0.279945 7.19568 0.187923 6.97622 0.18593 6.74679C0.183936 6.51737 0.272132 6.29634 0.43152 6.13132L5.38139 1.18144C5.54548 1.0174 5.768 0.925253 6.00002 0.925253C6.23204 0.925253 6.45456 1.0174 6.61864 1.18144L11.5685 6.13132C11.7326 6.2954 11.8247 6.51792 11.8247 6.74994C11.8247 6.98196 11.7326 7.20448 11.5685 7.36857Z" fill="#888C9F"/>
</svg>
