<svg width="11" height="8" viewBox="0 0 11 8" fill="none" xmlns="http://www.w3.org/2000/svg">
<path d="M7.14856 3.95274C7.14856 4.82661 6.40914 5.53502 5.49701 5.53502C4.58489 5.53502 3.84547 4.82661 3.84547 3.95274C3.84547 3.07886 4.58489 2.37046 5.49701 2.37046C6.40914 2.37045 7.14856 3.07887 7.14856 3.95274ZM5.5 0.658203C4.5556 0.662392 3.5767 0.892302 2.65005 1.33248C1.96201 1.67276 1.29149 2.15286 0.709445 2.74543C0.423573 3.04793 0.0589508 3.48593 0 3.95325C0.00696667 4.35806 0.441192 4.85772 0.709445 5.16108C1.25526 5.73039 1.90832 6.19708 2.65005 6.57439C3.5142 6.99377 4.47069 7.23523 5.5 7.24866C6.44529 7.24441 7.42397 7.01185 8.3496 6.57439C9.03764 6.2341 9.7085 5.75366 10.2906 5.16108C10.5764 4.85859 10.941 4.42058 11 3.95325C10.993 3.54844 10.5588 3.04877 10.2906 2.74542C9.74474 2.17611 9.09133 1.70978 8.3496 1.33246C7.4859 0.913394 6.52705 0.673594 5.5 0.658203ZM5.4993 1.47631C6.93039 1.47631 8.09049 2.58542 8.09049 3.95361C8.09049 5.32179 6.93039 6.4309 5.4993 6.4309C4.06821 6.4309 2.90812 5.32178 2.90812 3.95361C2.90812 2.58542 4.06821 1.47631 5.4993 1.47631Z" fill="#00AEFF"/>
</svg>
