<?xml version="1.0" encoding="utf-8"?>
<!-- Generator: Adobe Illustrator 25.2.3, SVG Export Plug-In . SVG Version: 6.00 Build 0)  -->
<svg version="1.1" id="Layer_1" xmlns="http://www.w3.org/2000/svg" xmlns:xlink="http://www.w3.org/1999/xlink" x="0px" y="0px"
	 viewBox="0 0 11 12" style="enable-background:new 0 0 11 12;" xml:space="preserve">
<path class="st0" d="M6.1,3.3c-0.2,0-0.4,0-0.6,0C4.6,3.3,3.6,3.5,2.6,4C2,4.3,1.3,4.8,0.7,5.4C0.4,5.7,0.1,6.1,0,6.6
	C0,7,0.4,7.5,0.7,7.8c0.5,0.6,1.2,1,1.9,1.4c0,0,0.1,0,0.1,0L2,10.5L3,11L8,2.2L7.1,1.7L6.1,3.3z M8.3,3.9L7.6,5.1
	c0.3,0.4,0.5,0.9,0.5,1.5c0,1.4-1.2,2.5-2.6,2.5c-0.1,0-0.1,0-0.2,0L4.9,9.9c0.2,0,0.4,0,0.6,0c0.9,0,1.9-0.2,2.8-0.7
	C9,8.9,9.7,8.4,10.3,7.8c0.3-0.3,0.7-0.7,0.7-1.2c0-0.4-0.4-0.9-0.7-1.2C9.7,4.8,9.1,4.4,8.3,3.9C8.3,4,8.3,4,8.3,3.9z M5.5,4.1
	c0.1,0,0.1,0,0.2,0L5.2,5.1C4.4,5.2,3.8,5.8,3.8,6.6c0,0.2,0,0.4,0.1,0.5c0,0,0,0,0,0L3.4,8.1C3.1,7.7,2.9,7.2,2.9,6.6
	C2.9,5.2,4.1,4.1,5.5,4.1z M7,6.1L5.8,8.1C6.6,8,7.1,7.4,7.1,6.6C7.1,6.4,7.1,6.2,7,6.1z" fill="#FF616D"/>
</svg>
