<svg width="12" height="13" viewBox="0 0 12 13" fill="none" xmlns="http://www.w3.org/2000/svg">
<path d="M2.0625 0.904297C1.61495 0.904297 1.18572 1.08209 0.869257 1.39855C0.55279 1.71502 0.375 2.14424 0.375 2.5918V10.4668C0.375 10.9143 0.55279 11.3436 0.869257 11.66C1.18572 11.9765 1.61495 12.1543 2.0625 12.1543H9.9375C10.3851 12.1543 10.8143 11.9765 11.1307 11.66C11.4472 11.3436 11.625 10.9143 11.625 10.4668V2.5918C11.625 2.14424 11.4472 1.71502 11.1307 1.39855C10.8143 1.08209 10.3851 0.904297 9.9375 0.904297H2.0625ZM2.0625 2.0293H9.9375C10.0867 2.0293 10.2298 2.08856 10.3352 2.19405C10.4407 2.29954 10.5 2.44261 10.5 2.5918V10.4668C10.5 10.616 10.4407 10.7591 10.3352 10.8645C10.2298 10.97 10.0867 11.0293 9.9375 11.0293H2.0625C1.91332 11.0293 1.77024 10.97 1.66475 10.8645C1.55926 10.7591 1.5 10.616 1.5 10.4668V2.5918C1.5 2.44261 1.55926 2.29954 1.66475 2.19405C1.77024 2.08856 1.91332 2.0293 2.0625 2.0293V2.0293Z" fill="#9F9FB9"/>
</svg>
