<svg width="14" height="14" viewBox="0 0 14 14" fill="none" xmlns="http://www.w3.org/2000/svg">
<path d="M0.700195 3.11497C0.700195 1.78117 1.7802 0.701172 3.114 0.701172H10.8864C12.2202 0.701172 13.3002 1.78117 13.3002 3.11497V10.8874C13.3002 12.2212 12.2202 13.3012 10.8864 13.3012H3.114C2.47382 13.3012 1.85986 13.0469 1.40718 12.5942C0.954506 12.1415 0.700195 11.5276 0.700195 10.8874V3.11497ZM10.4688 5.06977C10.5533 4.98527 10.6008 4.87067 10.6008 4.75117C10.6008 4.63167 10.5533 4.51707 10.4688 4.43257C10.3843 4.34807 10.2697 4.3006 10.1502 4.3006C10.0307 4.3006 9.91609 4.34807 9.83159 4.43257L5.6502 8.61487L4.1688 7.13257C4.0843 7.04807 3.96969 7.0006 3.8502 7.0006C3.7307 7.0006 3.61609 7.04807 3.5316 7.13257C3.4471 7.21707 3.39963 7.33167 3.39963 7.45117C3.39963 7.57067 3.4471 7.68527 3.5316 7.76977L5.3316 9.56977C5.3734 9.61168 5.42305 9.64493 5.47773 9.66761C5.5324 9.6903 5.591 9.70198 5.6502 9.70198C5.70939 9.70198 5.76799 9.6903 5.82267 9.66761C5.87734 9.64493 5.92699 9.61168 5.9688 9.56977L10.4688 5.06977V5.06977Z" fill="#00AEFF"/>
</svg>
