<?xml version="1.0" encoding="utf-8"?>
<!-- Generator: Adobe Illustrator 25.2.3, SVG Export Plug-In . SVG Version: 6.00 Build 0)  -->
<svg version="1.1" id="Layer_1" xmlns="http://www.w3.org/2000/svg" xmlns:xlink="http://www.w3.org/1999/xlink" x="0px" y="0px"
	 viewBox="0 0 31 31" style="enable-background:new 0 0 31 31;" xml:space="preserve">
<path class="st0" d="M15.5,7.5h0.7l-2.3,2.3l1.6,1.6l5.1-5.1l-5.1-5.1L14,2.8l2.3,2.3c-8-0.6-14,8.1-10.1,15.3l0.2,0.3L8.1,19
	L8,18.8C5.8,13.6,9.8,7.4,15.5,7.5z M22.9,22.9c3.3-3.2,4-8.2,1.9-12.2l-0.2-0.3l-1.7,1.7l0.1,0.2c2.6,5.5-2.2,11.9-8.2,11.3
	l2.3-2.3l-1.6-1.6l-5.1,5.1l5.1,5.1l1.6-1.6L14.7,26C17.8,26.1,20.6,25.2,22.9,22.9z" fill="#B5B5C3"/>
</svg>
