<svg width="31" height="31" viewBox="0 0 31 31" fill="none" xmlns="http://www.w3.org/2000/svg">
<path d="M23.2502 14.2083V16.7916H28.4168V14.2083H23.2502ZM20.6668 22.7462C21.9068 23.6633 23.5214 24.8775 24.8002 25.8333C25.3168 25.1487 25.8335 24.4512 26.3502 23.7666C25.0714 22.8108 23.4568 21.5966 22.2168 20.6666C21.7002 21.3641 21.1835 22.0616 20.6668 22.7462ZM26.3502 7.23329C25.8335 6.54871 25.3168 5.85121 24.8002 5.16663C23.5214 6.12246 21.9068 7.33663 20.6668 8.26663C21.1835 8.95121 21.7002 9.64871 22.2168 10.3333C23.4568 9.40329 25.0714 8.20204 26.3502 7.23329ZM5.16683 11.625C3.746 11.625 2.5835 12.7875 2.5835 14.2083V16.7916C2.5835 18.2125 3.746 19.375 5.16683 19.375H6.4585V24.5416H9.04183V19.375H10.3335L16.7918 23.25V7.74996L10.3335 11.625H5.16683ZM11.6639 13.8337L14.2085 12.3095V18.6904L11.6639 17.1662L11.0439 16.7916H5.16683V14.2083H11.0439L11.6639 13.8337ZM20.021 15.5C20.021 13.782 19.2718 12.232 18.0835 11.1729V19.8141C19.2718 18.7679 20.021 17.2179 20.021 15.5Z" fill="#B5B5C3"/>
<path opacity="0.3" d="M11.6636 13.8337L14.2082 12.3096V18.6904L11.6636 17.1662L11.0436 16.7917H5.1665V14.2083H11.0436L11.6636 13.8337Z" fill="#B5B5C3"/>
</svg>
