<svg width="31" height="31" viewBox="0 0 31 31" fill="none" xmlns="http://www.w3.org/2000/svg">
<path fill-rule="evenodd" clip-rule="evenodd" d="M6.5 4.375C5.94772 4.375 5.5 4.82271 5.5 5.375V23.625C5.5 24.1773 5.94772 24.625 6.5 24.625H7.875C8.42728 24.625 8.875 24.1773 8.875 23.625V5.375C8.875 4.82272 8.42728 4.375 7.875 4.375H6.5ZM12.125 4.375C11.5727 4.375 11.125 4.82271 11.125 5.375V23.625C11.125 24.1773 11.5727 24.625 12.125 24.625H13.5C14.0523 24.625 14.5 24.1773 14.5 23.625V5.375C14.5 4.82272 14.0523 4.375 13.5 4.375H12.125Z" fill="#B5B5C3"/>
<rect opacity="0.3" x="16.1616" y="5.41406" width="3.375" height="20.25" rx="1" transform="rotate(-19 16.1616 5.41406)" fill="#B5B5C3"/>
</svg>
