<svg width="31" height="31" viewBox="0 0 31 31" fill="none" xmlns="http://www.w3.org/2000/svg">
<path d="M24.0005 17.9998H22.0005V13.9998H24.0005C24.6005 13.9998 25.0005 14.3998 25.0005 14.9998V16.9998C25.0005 17.5998 24.6005 17.9998 24.0005 17.9998ZM25.0005 22.9998V20.9998C25.0005 20.3998 24.6005 19.9998 24.0005 19.9998H22.0005V23.9998H24.0005C24.6005 23.9998 25.0005 23.5998 25.0005 22.9998ZM25.0005 10.9998V8.99976C25.0005 8.39976 24.6005 7.99976 24.0005 7.99976H22.0005V11.9998H24.0005C24.6005 11.9998 25.0005 11.5998 25.0005 10.9998Z" fill="#888C9F"/>
<path opacity="0.3" d="M21 26H7C6.4 26 6 25.6 6 25V7C6 6.4 6.4 6 7 6H21C21.6 6 22 6.4 22 7V25C22 25.6 21.6 26 21 26ZM14 11C12.9 11 12 11.9 12 13C12 14.1 12.9 15 14 15C15.1 15 16 14.1 16 13C16 11.9 15.1 11 14 11ZM17.3 20C18 20 18.5 19.3 18.3 18.7C17.7 17.2 16 16 14.1 16C12.1 16 10.5 17.1 9.89999 18.7C9.59999 19.3 10.2 20 11.4 20H17.3Z" fill="#888C9F"/>
</svg>
