<svg width="12" height="8" viewBox="0 0 12 8" fill="none" xmlns="http://www.w3.org/2000/svg">
<path d="M0.431481 0.631432C0.595568 0.467395 0.818087 0.375244 1.05011 0.375244C1.28212 0.375244 1.50464 0.467395 1.66873 0.631432L5.99998 4.96268L10.3312 0.631432C10.4963 0.472044 10.7173 0.383849 10.9467 0.385842C11.1761 0.387836 11.3956 0.479859 11.5578 0.642091C11.7201 0.804323 11.8121 1.02378 11.8141 1.25321C11.8161 1.48263 11.7279 1.70366 11.5685 1.86868L6.61861 6.81856C6.45452 6.98259 6.232 7.07475 5.99998 7.07475C5.76796 7.07475 5.54544 6.98259 5.38136 6.81856L0.431481 1.86868C0.267444 1.7046 0.175293 1.48208 0.175293 1.25006C0.175293 1.01804 0.267444 0.795519 0.431481 0.631432Z" fill="#464E5F"/>
</svg>
