<svg width="4" height="10" viewBox="0 0 4 10" fill="none" xmlns="http://www.w3.org/2000/svg">
<path d="M3.125 8.75C3.125 9.04837 3.00647 9.33452 2.7955 9.5455C2.58452 9.75647 2.29837 9.875 2 9.875C1.70163 9.875 1.41548 9.75647 1.2045 9.5455C0.993526 9.33452 0.875 9.04837 0.875 8.75C0.875 8.45163 0.993526 8.16548 1.2045 7.9545C1.41548 7.74353 1.70163 7.625 2 7.625C2.29837 7.625 2.58452 7.74353 2.7955 7.9545C3.00647 8.16548 3.125 8.45163 3.125 8.75ZM3.125 5C3.125 5.29837 3.00647 5.58452 2.7955 5.7955C2.58452 6.00647 2.29837 6.125 2 6.125C1.70163 6.125 1.41548 6.00647 1.2045 5.7955C0.993526 5.58452 0.875 5.29837 0.875 5C0.875 4.70163 0.993526 4.41548 1.2045 4.2045C1.41548 3.99353 1.70163 3.875 2 3.875C2.29837 3.875 2.58452 3.99353 2.7955 4.2045C3.00647 4.41548 3.125 4.70163 3.125 5ZM3.125 1.25C3.125 1.54837 3.00647 1.83452 2.7955 2.0455C2.58452 2.25647 2.29837 2.375 2 2.375C1.70163 2.375 1.41548 2.25647 1.2045 2.0455C0.993526 1.83452 0.875 1.54837 0.875 1.25C0.875 0.951631 0.993526 0.665483 1.2045 0.454505C1.41548 0.243526 1.70163 0.125 2 0.125C2.29837 0.125 2.58452 0.243526 2.7955 0.454505C3.00647 0.665483 3.125 0.951631 3.125 1.25Z" fill="#6F6F6F"/>
</svg>
