<svg width="11" height="9" viewBox="0 0 11 9" fill="none" xmlns="http://www.w3.org/2000/svg">
<path d="M9.44614 1.66934C9.7218 1.93392 9.72631 2.36154 9.45631 2.63143L5.65063 6.43545C5.51921 6.56681 5.33884 6.64274 5.14914 6.64656L3.5484 6.6788L3.58213 5.13537C3.58602 4.95742 3.66168 4.78787 3.79317 4.66237L7.68501 0.948189C7.96489 0.681078 8.41718 0.681701 8.69627 0.94958L9.44614 1.66934Z" fill="#3699FF"/>
<path opacity="0.3" d="M5.63416 0.453125C5.87535 0.453125 6.07087 0.640794 6.07087 0.872296C6.07087 1.1038 5.87535 1.29147 5.63416 1.29147H2.62086C2.13849 1.29147 1.74744 1.6668 1.74744 2.12981V7.15985C1.74744 7.62286 2.13849 7.9982 2.62086 7.9982H7.86139C8.34376 7.9982 8.73481 7.62286 8.73481 7.15985V5.064C8.73481 4.8325 8.93033 4.64483 9.17152 4.64483C9.4127 4.64483 9.60823 4.8325 9.60823 5.064V7.15985C9.60823 8.08586 8.82614 8.83654 7.86139 8.83654H2.62086C1.65611 8.83654 0.874023 8.08586 0.874023 7.15985V2.12981C0.874023 1.2038 1.65611 0.453125 2.62086 0.453125H5.63416Z" fill="#3699FF"/>
</svg>
