<?xml version="1.0" encoding="utf-8"?>
<!-- Generator: Adobe Illustrator 25.2.3, SVG Export Plug-In . SVG Version: 6.00 Build 0)  -->
<svg version="1.1" id="Layer_1" xmlns="http://www.w3.org/2000/svg" xmlns:xlink="http://www.w3.org/1999/xlink" x="0px" y="0px"
	 viewBox="0 0 8 9" style="enable-background:new 0 0 8 9;" xml:space="preserve">
<path class="st0" d="M1.1,2c0-0.1,0-0.2,0.1-0.3c0.1-0.1,0.2-0.1,0.3-0.1h5.4c0.1,0,0.2,0,0.3,0.1C7.3,1.7,7.3,1.8,7.3,2
	c0,0.1,0,0.2-0.1,0.3C7.1,2.4,7,2.4,6.9,2.4H1.5c-0.1,0-0.2,0-0.3-0.1C1.1,2.2,1.1,2.1,1.1,2z M2,4.3c0-0.1,0-0.2,0.1-0.3
	c0.1-0.1,0.2-0.1,0.3-0.1h3.4c0.1,0,0.2,0,0.3,0.1c0.1,0.1,0.1,0.2,0.1,0.3s0,0.2-0.1,0.3C6.1,4.7,6,4.8,5.9,4.8H2.5
	c-0.1,0-0.2,0-0.3-0.1C2.1,4.6,2,4.4,2,4.3z M3.2,6.7c0-0.1,0-0.2,0.1-0.3c0.1-0.1,0.2-0.1,0.3-0.1h1.1c0.1,0,0.2,0,0.3,0.1
	c0.1,0.1,0.1,0.2,0.1,0.3s0,0.2-0.1,0.3C5,7.1,4.9,7.2,4.8,7.2H3.6c-0.1,0-0.2,0-0.3-0.1C3.2,7,3.2,6.8,3.2,6.7z"  fill="#8F9098"/>
</svg>
