<?xml version="1.0" encoding="utf-8"?>
<!-- Generator: Adobe Illustrator 25.2.3, SVG Export Plug-In . SVG Version: 6.00 Build 0)  -->
<svg version="1.1" id="Layer_1" xmlns="http://www.w3.org/2000/svg" xmlns:xlink="http://www.w3.org/1999/xlink" x="0px" y="0px"
	 viewBox="0 0 19 20" style="enable-background:new 0 0 19 20;" xml:space="preserve">
<path class="st0" d="M10.5,8l-3.2,3.2c-0.1,0.1-0.1,0.2-0.2,0.3c0,0.1-0.1,0.2-0.1,0.3c0,0.1,0,0.2,0.1,0.3c0,0.1,0.1,0.2,0.2,0.3
	c0.1,0.1,0.2,0.1,0.3,0.2c0.1,0,0.2,0.1,0.3,0.1s0.2,0,0.3-0.1c0.1,0,0.2-0.1,0.3-0.2l3.2-3.2c0.1-0.1,0.2-0.4,0.2-0.6
	c0-0.2-0.1-0.4-0.2-0.6c-0.1-0.1-0.4-0.2-0.6-0.2C10.9,7.7,10.7,7.8,10.5,8L10.5,8z" fill="#FFFFFF"/>
<path class="st0" d="M9.7,14.4l-1,1c-0.6,0.6-1.3,0.9-2.1,1c-0.8,0.1-1.6-0.2-2.3-0.7c-0.3-0.3-0.6-0.6-0.8-1
	c-0.2-0.4-0.3-0.8-0.3-1.3c0-0.4,0.1-0.9,0.2-1.3c0.2-0.4,0.4-0.8,0.7-1.1l1.1-1.1c0.1-0.1,0.1-0.2,0.2-0.3c0-0.1,0.1-0.2,0.1-0.3
	c0-0.1,0-0.2-0.1-0.3c0-0.1-0.1-0.2-0.2-0.3C5.1,8.7,5,8.6,4.9,8.6c-0.1,0-0.2-0.1-0.3-0.1c-0.1,0-0.2,0-0.3,0.1
	c-0.1,0-0.2,0.1-0.3,0.2l-1,1c-0.8,0.8-1.4,1.9-1.5,3.1c-0.1,1.2,0.2,2.3,0.9,3.3c0.4,0.5,0.9,1,1.5,1.3S5.3,18,6,18
	c0.7,0,1.4-0.1,2-0.3c0.6-0.2,1.2-0.6,1.7-1.1l1.1-1.1c0.1-0.1,0.2-0.4,0.2-0.6c0-0.2-0.1-0.4-0.2-0.6c-0.1-0.1-0.4-0.2-0.6-0.2
	S9.9,14.2,9.7,14.4L9.7,14.4z M15.6,3.2c-1-0.7-2.1-1-3.3-0.9C11.1,2.3,10,2.8,9.1,3.7L8.3,4.6C8.2,4.6,8.1,4.7,8,4.8
	C8,4.9,7.9,5.1,7.9,5.2c0,0.1,0,0.2,0,0.4s0.1,0.2,0.2,0.3C8.2,5.9,8.3,6,8.4,6c0.1,0,0.2,0.1,0.3,0.1c0.1,0,0.2,0,0.3-0.1
	c0.1,0,0.2-0.1,0.3-0.2l1-1c0.6-0.6,1.3-0.9,2.1-1c0.8-0.1,1.6,0.2,2.3,0.7c0.3,0.3,0.6,0.6,0.8,1c0.2,0.4,0.3,0.8,0.3,1.3
	s-0.1,0.9-0.2,1.3c-0.2,0.4-0.4,0.8-0.7,1.1l-1.1,1.1c-0.1,0.1-0.1,0.2-0.2,0.3c0,0.1-0.1,0.2-0.1,0.3s0,0.2,0.1,0.3
	c0,0.1,0.1,0.2,0.2,0.3c0.1,0.1,0.2,0.1,0.3,0.2c0.1,0,0.2,0.1,0.3,0.1c0.1,0,0.2,0,0.3-0.1c0.1,0,0.2-0.1,0.3-0.2l1.1-1.1
	c0.5-0.5,0.8-1.1,1.1-1.7c0.2-0.6,0.3-1.3,0.3-2c0-0.7-0.2-1.3-0.6-1.9C16.5,4.1,16.1,3.6,15.6,3.2L15.6,3.2z" fill="#FFFFFF"/>
<path class="st1" d="M15.8,12.6c0.1,0,0.3,0.1,0.4,0.2c0.1,0.1,0.2,0.2,0.2,0.4v1.7h1.7c0.1,0,0.3,0.1,0.4,0.2
	c0.1,0.1,0.2,0.2,0.2,0.4c0,0.1-0.1,0.3-0.2,0.4c-0.1,0.1-0.2,0.2-0.4,0.2h-1.7v1.7c0,0.1-0.1,0.3-0.2,0.4c-0.1,0.1-0.2,0.2-0.4,0.2
	s-0.3-0.1-0.4-0.2c-0.1-0.1-0.2-0.2-0.2-0.4V16h-1.7c-0.1,0-0.3-0.1-0.4-0.2c-0.1-0.1-0.2-0.2-0.2-0.4c0-0.1,0.1-0.3,0.2-0.4
	c0.1-0.1,0.2-0.2,0.4-0.2h1.7v-1.7c0-0.1,0.1-0.3,0.2-0.4C15.5,12.7,15.7,12.6,15.8,12.6z" fill="#FFFFFF"/>
</svg>
