<?xml version="1.0" encoding="utf-8"?>
<!-- Generator: Adobe Illustrator 25.2.3, SVG Export Plug-In . SVG Version: 6.00 Build 0)  -->
<svg version="1.1" id="Layer_1" xmlns="http://www.w3.org/2000/svg" xmlns:xlink="http://www.w3.org/1999/xlink" x="0px" y="0px"
	 viewBox="0 0 9 9" style="enable-background:new 0 0 9 9;" xml:space="preserve">
<path class="st0" d="M2.2,1.2c0.1-0.1,0.4-0.1,0.5,0l1.4,1.3c0.2,0.1,0.2,0.4,0,0.6C4,3.2,3.7,3.2,3.6,3L2.8,2.4v4.8
	c0,0.2-0.2,0.4-0.4,0.4c-0.2,0-0.4-0.2-0.4-0.4V2.4L1.3,3C1.2,3.2,0.9,3.2,0.8,3c-0.1-0.2-0.1-0.4,0-0.6L2.2,1.2z M6.2,1.1
	c0.2,0,0.4,0.2,0.4,0.4v4.8l0.7-0.7c0.2-0.1,0.4-0.1,0.6,0C8,5.8,8,6,7.8,6.2L6.4,7.4C6.3,7.6,6,7.6,5.9,7.4L4.5,6.2
	C4.4,6,4.3,5.8,4.5,5.6c0.1-0.2,0.4-0.2,0.6,0l0.7,0.7V1.5C5.8,1.3,5.9,1.1,6.2,1.1z"  fill="#8F9098"/>
</svg>
